HIERARCHY
ROOT Hips
{
	OFFSET 0.000000 0.000000 0.000000
	CHANNELS 6 Xposition Yposition Zposition Zrotation Yrotation Xrotation 
	JOINT LHipJoint
	{
		OFFSET 0.000000 0.000000 0.000000
		CHANNELS 3 Zrotation Yrotation Xrotation
		JOINT LeftUpLeg
		{
			OFFSET 1.363060 -1.794630 0.839290
			CHANNELS 3 Zrotation Yrotation Xrotation
			JOINT LeftLeg
			{
				OFFSET 2.448110 -6.726130 0.000000
				CHANNELS 3 Zrotation Yrotation Xrotation
				JOINT LeftFoot
				{
					OFFSET 2.562200 -7.039590 0.000000
					CHANNELS 3 Zrotation Yrotation Xrotation
					JOINT LeftToeBase
					{
						OFFSET 0.157640 -0.433110 2.322550
						CHANNELS 3 Zrotation Yrotation Xrotation
						End Site
						{
							OFFSET 0.000000 0.000000 0.000000
						}
					}
				}
			}
		}
	}
	JOINT RHipJoint
	{
		OFFSET 0.000000 0.000000 0.000000
		CHANNELS 3 Zrotation Yrotation Xrotation
		JOINT RightUpLeg
		{
			OFFSET -1.305520 -1.794630 0.839290
			CHANNELS 3 Zrotation Yrotation Xrotation
			JOINT RightLeg
			{
				OFFSET -2.542530 -6.985550 0.000000
				CHANNELS 3 Zrotation Yrotation Xrotation
				JOINT RightFoot
				{
					OFFSET -2.568260 -7.056230 0.000000
					CHANNELS 3 Zrotation Yrotation Xrotation
					JOINT RightToeBase
					{
						OFFSET -0.164730 -0.452590 2.363150
						CHANNELS 3 Zrotation Yrotation Xrotation
						End Site
						{
							OFFSET 0.000000 0.000000 0.000000
						}
					}
				}
			}
		}
	}
	JOINT LowerBack
	{
		OFFSET 0.000000 0.000000 0.000000
		CHANNELS 3 Zrotation Yrotation Xrotation
		JOINT Spine
		{
			OFFSET 0.028270 2.035590 -0.193380
			CHANNELS 3 Zrotation Yrotation Xrotation
			JOINT Spine1
			{
				OFFSET 0.056720 2.048850 -0.042750
				CHANNELS 3 Zrotation Yrotation Xrotation
				JOINT Neck
				{
					OFFSET 0.000000 0.000000 0.000000
					CHANNELS 3 Zrotation Yrotation Xrotation
					JOINT Neck1
					{
						OFFSET -0.054170 1.746240 0.172020
						CHANNELS 3 Zrotation Yrotation Xrotation
						JOINT Head
						{
							OFFSET 0.104070 1.761360 -0.123970
							CHANNELS 3 Zrotation Yrotation Xrotation
							End Site
							{
								OFFSET 0.000000 0.000000 0.000000
							}
						}
					}
				}
				JOINT LeftShoulder
				{
					OFFSET 0.000000 0.000000 0.000000
					CHANNELS 3 Zrotation Yrotation Xrotation
					JOINT LeftArm
					{
						OFFSET 3.362410 1.200890 -0.311210
						CHANNELS 3 Zrotation Yrotation Xrotation
						JOINT LeftForeArm
						{
							OFFSET 4.983000 -0.000000 -0.000000
							CHANNELS 3 Zrotation Yrotation Xrotation
							JOINT LeftHand
							{
								OFFSET 3.483560 -0.000000 -0.000000
								CHANNELS 3 Zrotation Yrotation Xrotation
								JOINT LeftFingerBase
								{
									OFFSET 0.000000 0.000000 0.000000
									CHANNELS 3 Zrotation Yrotation Xrotation
									JOINT LeftHandIndex1
									{
										OFFSET 0.715260 -0.000000 -0.000000
										CHANNELS 3 Zrotation Yrotation Xrotation
										End Site
										{
											OFFSET 0.000000 0.000000 0.000000
										}
									}
								}
								JOINT LThumb
								{
									OFFSET 0.000000 0.000000 0.000000
									CHANNELS 3 Zrotation Yrotation Xrotation
									End Site
									{
										OFFSET 0.000000 0.000000 0.000000
									}
								}
							}
						}
					}
				}
				JOINT RightShoulder
				{
					OFFSET 0.000000 0.000000 0.000000
					CHANNELS 3 Zrotation Yrotation Xrotation
					JOINT RightArm
					{
						OFFSET -3.136600 1.374050 -0.404650
						CHANNELS 3 Zrotation Yrotation Xrotation
						JOINT RightForeArm
						{
							OFFSET -5.241900 -0.000000 -0.000000
							CHANNELS 3 Zrotation Yrotation Xrotation
							JOINT RightHand
							{
								OFFSET -3.444170 -0.000000 -0.000000
								CHANNELS 3 Zrotation Yrotation Xrotation
								JOINT RightFingerBase
								{
									OFFSET 0.000000 0.000000 0.000000
									CHANNELS 3 Zrotation Yrotation Xrotation
									JOINT RightHandIndex1
									{
										OFFSET -0.622530 -0.000000 -0.000000
										CHANNELS 3 Zrotation Yrotation Xrotation
										End Site
										{
											OFFSET 0.000000 0.000000 0.000000
										}
									}
								}
								JOINT RThumb
								{
									OFFSET 0.000000 0.000000 0.000000
									CHANNELS 3 Zrotation Yrotation Xrotation
									End Site
									{
										OFFSET 0.000000 0.000000 0.000000
									}
								}
							}
						}
					}
				}
			}
		}
	}
}
MOTION
Frames: 12
Frame Time: 0.008333
6.276168 16.754163 0.513750 47.783233 86.542639 58.505050 -8.555651 1.521536 5.485068 -18.436708 -8.636372 -35.494389 -2.783902 0.443212 23.945741 0.200808 -0.195298 -4.535464 0.156100 -0.000000 -13.590200 11.688170 -5.049994 -0.315616 1.309639 -15.859061 -3.285104 0.035054 -2.866378 41.694194 -0.365825 20.003058 31.850201 12.681000 -0.000000 -69.589800 -4.556760 2.369647 -7.186234 -2.369918 2.480872 -4.488180 -7.919738 2.477512 0.044528 11.879813 -7.176709 -8.106283 -3.553613 -0.282852 -0.111142 0.000000 0.000000 0.000000 -0.937147 23.760279 0.217874 -56.751947 21.344009 5.211068 -0.852823 -73.866741 0.001675 8.919272 0.386333 0.032200 -0.181733 0.002937 -0.000000 0.000000 0.000000 0.000000 0.000000 0.000000 0.000000 17.718655 2.601434 -1.432577 76.507191 12.885192 22.786360 1.257389 68.754873 0.009514 0.408909 7.510427 0.029023 0.019709 -0.414169 -0.000000 0.000000 0.000000 0.000000 0.000000 0.000000 0.000000 
6.491185 16.726451 0.544584 55.209741 86.192872 65.646198 -8.285775 1.705069 5.421464 -19.401283 -8.793397 -34.982586 -2.785618 0.594773 25.423515 0.247451 0.005082 -4.931163 0.149900 -0.000000 -12.574000 12.067977 -4.792720 -0.513329 0.276910 -16.639683 -4.622866 -0.247520 -2.969218 45.040186 -0.635833 16.139085 31.933456 10.422600 0.000000 -67.846500 -5.098771 2.131376 -6.930754 -2.474195 2.302338 -4.433633 -7.936562 2.300367 0.044600 12.036176 -7.215316 -8.117927 -3.619043 -0.287233 -0.121540 0.000000 0.000000 0.000000 -1.007242 23.537652 0.224507 -57.049908 20.785909 4.954895 -0.882288 -73.371235 0.001563 9.113342 0.361127 0.030692 -0.180563 0.004037 -0.000000 0.000000 0.000000 0.000000 0.000000 0.000000 0.000000 18.269164 2.436806 -1.404030 76.725018 12.523976 22.244730 1.299055 67.658014 0.008557 0.186106 7.722161 0.013615 0.024158 -0.410140 -0.000000 0.000000 0.000000 0.000000 0.000000 0.000000 0.000000 
6.701889 16.706121 0.573395 60.450417 85.756056 70.627217 -8.042226 1.868569 5.365342 -20.290299 -8.988052 -34.328799 -2.803620 0.714477 26.632102 0.310046 0.230166 -5.594559 0.130300 -0.000000 -11.902301 12.383277 -4.501955 -0.695098 -0.631805 -17.165766 -5.987798 -0.508186 -3.081023 48.306145 -0.900478 12.007655 31.358618 7.896900 -0.000000 -65.418399 -5.613148 1.912774 -6.684011 -2.568095 2.138023 -4.377617 -7.944582 2.135568 0.055341 12.161752 -7.263873 -8.132204 -3.681577 -0.291291 -0.132616 0.000000 0.000000 0.000000 -1.157589 23.334269 0.220968 -57.373851 20.041608 4.787008 -0.920413 -72.720344 0.001468 9.306161 0.335366 0.029084 -0.179245 0.004981 -0.000000 0.000000 0.000000 0.000000 0.000000 0.000000 0.000000 18.777873 2.245871 -1.380828 76.935501 12.124706 21.651045 1.340865 66.469740 0.007127 -0.140846 7.931670 -0.010393 0.030018 -0.404842 -0.000000 0.000000 0.000000 0.000000 0.000000 0.000000 0.000000 
6.908462 16.693689 0.598912 63.801975 85.297702 73.753207 -7.839652 2.000780 5.306348 -21.073524 -9.170960 -33.555004 -2.834567 0.800885 27.579071 0.383147 0.454865 -6.470500 0.093999 0.000000 -11.531300 12.629424 -4.207377 -0.844015 -1.362864 -17.396717 -7.394968 -0.745059 -3.209992 51.450871 -1.148137 7.926676 30.133134 5.388200 -0.000000 -62.520000 -6.053471 1.714765 -6.456643 -2.642136 1.985309 -4.322859 -7.942745 1.980865 0.072835 12.244533 -7.318307 -8.145528 -3.739630 -0.295008 -0.142851 0.000000 0.000000 0.000000 -1.411583 23.136761 0.206522 -57.712018 19.147000 4.702617 -0.965283 -71.952516 0.001396 9.491295 0.309740 0.027377 -0.177812 0.005761 -0.000000 0.000000 0.000000 0.000000 0.000000 0.000000 0.000000 19.220644 2.032826 -1.362021 77.130417 11.679186 21.011437 1.381497 65.201370 0.005272 -0.570584 8.117609 -0.043207 0.037155 -0.397926 -0.000000 0.000000 0.000000 0.000000 0.000000 0.000000 0.000000 
7.111192 16.689243 0.620712 65.641166 84.852996 75.405557 -7.679902 2.101091 5.238929 -21.743089 -9.311140 -32.674370 -2.875889 0.853510 28.255239 0.463567 0.676748 -7.478513 0.042000 0.000000 -11.423999 12.813952 -3.927617 -0.949110 -1.904616 -17.320243 -8.857566 -0.961416 -3.357562 54.440777 -1.366712 4.179903 28.328280 3.144200 -0.000000 -59.340600 -6.399621 1.538062 -6.257210 -2.692723 1.843872 -4.271195 -7.930626 1.836388 0.096779 12.281134 -7.378402 -8.157474 -3.791645 -0.298303 -0.151818 0.000000 0.000000 0.000000 -1.766285 22.943772 0.181571 -58.062333 18.123048 4.702742 -1.015443 -71.095069 0.001331 9.664402 0.281702 0.025371 -0.176305 0.006530 -0.000000 0.000000 0.000000 0.000000 0.000000 0.000000 0.000000 19.585429 1.799775 -1.346341 77.302857 11.189872 20.340498 1.420090 63.865436 0.003071 -1.094419 8.257787 -0.084223 0.045359 -0.389187 -0.000000 0.000000 0.000000 0.000000 0.000000 0.000000 0.000000 
7.310354 16.692424 0.639035 66.274152 84.431641 75.891466 -7.558130 2.174420 5.160172 -22.309397 -9.389523 -31.694289 -2.925487 0.873295 28.647160 0.548959 0.904887 -8.527064 -0.022200 0.000000 -11.544000 12.948928 -3.671462 -1.004336 -2.276547 -16.944063 -10.379729 -1.161447 -3.519882 57.244192 -1.545436 0.970137 26.056315 1.328100 -0.000000 -56.037700 -6.653730 1.382250 -6.090683 -2.720796 1.714147 -4.222518 -7.907704 1.703096 0.132491 12.275750 -7.449543 -8.172812 -3.835731 -0.300978 -0.160772 0.000000 0.000000 0.000000 -2.196052 22.775340 0.147388 -58.434280 16.960798 4.800112 -1.070422 -70.155852 0.001236 9.823371 0.246074 0.022567 -0.174838 0.007611 -0.000000 0.000000 0.000000 0.000000 0.000000 0.000000 0.000000 19.870492 1.544204 -1.333664 77.446859 10.671427 19.664371 1.456110 62.475996 0.000650 -1.697518 8.331176 -0.131447 0.054377 -0.378557 -0.000000 0.000000 0.000000 0.000000 0.000000 0.000000 0.000000 
7.506459 16.702803 0.653507 65.847886 84.052501 75.366149 -7.482298 2.224546 5.067616 -22.758665 -9.364806 -30.661720 -2.977447 0.864116 28.781974 0.632645 1.120454 -9.536869 -0.094200 0.000001 -11.834300 13.034152 -3.448232 -1.000111 -2.465153 -16.271172 -11.970439 -1.347030 -3.688579 59.828952 -1.676967 -1.613263 23.446875 -0.004100 0.000000 -52.711700 -6.795492 1.247558 -5.968771 -2.722498 1.594902 -4.181373 -7.874294 1.579559 0.171282 12.224175 -7.523552 -8.184090 -3.871716 -0.303165 -0.167209 0.000000 0.000000 0.000000 -2.708503 22.598595 0.104843 -58.816365 15.737889 4.972059 -1.126262 -69.204573 0.001108 9.964230 0.203658 0.018967 -0.173380 0.009006 -0.000000 0.000000 0.000000 0.000000 0.000000 0.000000 0.000000 20.065018 1.277415 -1.319566 77.556190 10.116585 18.998393 1.489409 61.052319 -0.001829 -2.351438 8.320954 -0.181579 0.063768 -0.366057 -0.000000 0.000000 0.000000 0.000000 0.000000 0.000000 0.000000 
7.699830 16.719520 0.664867 64.569930 83.704003 74.035193 -7.445054 2.259630 4.961343 -23.111110 -9.227768 -29.590696 -3.029714 0.829703 28.666289 0.710847 1.327923 -10.431903 -0.167200 0.000000 -12.238099 13.080593 -3.254869 -0.936629 -2.512346 -15.334623 -13.617927 -1.517686 -3.854493 62.166485 -1.756777 -3.542461 20.617626 -0.865300 -0.000000 -49.386200 -6.843051 1.130485 -5.891994 -2.701905 1.484542 -4.146891 -7.830339 1.464511 0.217759 12.135233 -7.604782 -8.195625 -3.898540 -0.304719 -0.172443 0.000000 0.000000 0.000000 -3.268618 22.430687 0.056357 -59.219272 14.451094 5.228039 -1.182129 -68.253533 0.000901 10.087745 0.150081 0.014169 -0.172067 0.011044 -0.000000 0.000000 0.000000 0.000000 0.000000 0.000000 0.000000 20.176299 0.997818 -1.303823 77.625142 9.540999 18.373346 1.520106 59.613204 -0.004208 -3.026190 8.216233 -0.230319 0.073140 -0.351871 -0.000000 0.000000 0.000000 0.000000 0.000000 0.000000 0.000000 
7.890883 16.741735 0.673531 62.603060 83.378996 72.060217 -7.443951 2.286368 4.841800 -23.375822 -8.965133 -28.508564 -3.079551 0.775157 28.328652 0.778126 1.516421 -11.159368 -0.234300 0.000000 -12.690100 13.093380 -3.087472 -0.814561 -2.446428 -14.169186 -15.307431 -1.669969 -4.008253 64.228688 -1.784474 -4.855329 17.674525 -1.324800 -0.000000 -46.052300 -6.804843 1.026958 -5.861350 -2.661029 1.379778 -4.120277 -7.776375 1.354619 0.268071 12.013504 -7.690105 -8.204374 -3.916499 -0.305705 -0.175611 0.000000 0.000000 0.000000 -3.858571 22.255298 0.004307 -59.642485 13.145211 5.555984 -1.235294 -67.347513 0.000591 10.194185 0.084877 0.008074 -0.170929 0.013858 -0.000000 0.000000 0.000000 0.000000 0.000000 0.000000 0.000000 20.208647 0.710482 -1.284001 77.648926 8.946711 17.810540 1.548689 58.179376 -0.006331 -3.684357 8.015022 -0.273267 0.082024 -0.336280 0.000000 0.000000 0.000000 0.000000 0.000000 0.000000 0.000000 
8.080021 16.768508 0.680198 60.139142 83.065399 69.627818 -7.472606 2.311377 4.710102 -23.569146 -8.576783 -27.429949 -3.126041 0.705595 27.797153 0.830304 1.677171 -11.686832 -0.289400 0.000000 -13.133100 13.079284 -2.938462 -0.639174 -2.306841 -12.821148 -17.015709 -1.798799 -4.142293 65.990944 -1.763723 -5.625692 14.709338 -1.477000 0.000000 -42.680800 -6.697244 0.931453 -5.872348 -2.603554 1.276471 -4.101183 -7.713194 1.245813 0.320199 11.866147 -7.778794 -8.209190 -3.926217 -0.306178 -0.176531 0.000000 0.000000 0.000000 -4.453678 22.062511 -0.048577 -60.087212 11.850357 5.948362 -1.283738 -66.518734 0.000153 10.284900 0.007691 0.000786 -0.170016 0.017595 -0.000000 0.000000 0.000000 0.000000 0.000000 0.000000 0.000000 20.171985 0.417241 -1.258674 77.622979 8.338303 17.330488 1.575889 56.771614 -0.008061 -4.287971 7.724932 -0.306221 0.090003 -0.319661 -0.000000 0.000000 0.000000 0.000000 0.000000 0.000000 0.000000 
8.267577 16.798957 0.685641 57.392871 82.752060 66.944158 -7.522342 2.339962 4.567894 -23.709088 -8.074090 -26.358518 -3.169722 0.625614 27.098729 0.864701 1.802169 -12.003414 -0.327800 0.000000 -13.528800 13.045549 -2.798857 -0.419070 -2.134279 -11.343527 -18.716054 -1.898898 -4.251542 67.433128 -1.702451 -5.952727 11.802130 -1.422600 0.000000 -39.247799 -6.540019 0.837097 -5.916671 -2.533898 1.169409 -4.087978 -7.642015 1.133077 0.374014 11.701931 -7.869608 -8.210500 -3.928736 -0.306183 -0.175589 0.000000 0.000000 0.000000 -5.026994 21.853025 -0.099422 -60.555498 10.575036 6.406086 -1.326521 -65.783317 -0.000442 10.363196 -0.081916 -0.007899 -0.169421 0.022413 -0.000000 0.000000 0.000000 0.000000 0.000000 0.000000 0.000000 20.080620 0.119832 -1.228113 77.542412 7.719604 16.947137 1.602300 55.412469 -0.009304 -4.800716 7.361332 -0.326481 0.096699 -0.302431 0.000000 0.000000 0.000000 0.000000 0.000000 0.000000 0.000000 
8.453842 16.832388 0.690440 54.569986 82.435957 64.205765 -7.586094 2.375172 4.417309 -23.808490 -7.474278 -25.294559 -3.211514 0.539212 26.262570 0.879765 1.881317 -12.117974 -0.347400 -0.000001 -13.856499 12.996930 -2.660729 -0.163923 -1.958523 -9.788373 -20.384529 -1.966282 -4.333011 68.540839 -1.612785 -5.954320 9.026122 -1.254700 -0.000000 -35.779500 -6.346841 0.737523 -5.985404 -2.455107 1.053362 -4.080841 -7.563855 1.011049 0.421543 11.524648 -7.966102 -8.202912 -3.925826 -0.305928 -0.171351 0.000000 0.000000 0.000000 -5.566507 21.581729 -0.146290 -61.038528 9.384930 6.899503 -1.360431 -65.190622 -0.001199 10.428020 -0.180794 -0.017679 -0.168997 0.028264 -0.000000 0.000000 0.000000 0.000000 0.000000 0.000000 0.000000 19.944331 -0.187695 -1.188731 77.405632 7.094595 16.674914 1.629455 54.112529 -0.010000 -5.195276 6.951766 -0.333544 0.101928 -0.285039 0.000000 0.000000 0.000000 0.000000 0.000000 0.000000 0.000000 
